# xmcd CD database file
#
# Track frame offsets:
#	150
#	21957
#	46840
#	63130
#	86622
#	111942
#	138177
#	159947
#	186907
#	219435
#	249572
#	275492
#	292117
#
# Disc length: 4207 seconds
#
# Revision: 9
# Processed by: cddbd v1.5.2PL0 Copyright (c) Steve Scherf et al.
# Submitted via: CDex 1.51
#
DISCID=b7106d0d
DTITLE=Don Henley - Inside Job
DYEAR=2000
DGENRE=Rock
TTITLE0=Nobody Else In The World But You
TTITLE1=Taking You Home
TTITLE2=For My Wedding
TTITLE3=Everything Is Different Now
TTITLE4=Workin' It
TTITLE5=Goodbye To A River
TTITLE6=Inside Job
TTITLE7=They're Not Here, They're Not Coming
TTITLE8=Damn It, Rose
TTITLE9=Miss Ghost
TTITLE10=The Genie
TTITLE11=Annabel
TTITLE12=My Thanksgiving
EXTD=YEAR: 2000
EXTT0=
EXTT1=
EXTT2=
EXTT3=
EXTT4=
EXTT5=
EXTT6=
EXTT7=
EXTT8=
EXTT9=
EXTT10=
EXTT11=
EXTT12=
PLAYORDER=
